<svg id="图层_1" data-name="图层 1" xmlns="http://www.w3.org/2000/svg" viewBox="0 0 505.85 229.17"><defs><style>.cls-1{fill:#900;}</style></defs><title>lab_logo_red</title><path class="cls-1" d="M394.83,6.19l19.54,17.93c-20.6,0-36.05-.55-51.45.13-19.76.88-32.77,10.33-34.46,31.29-1.54,19.14,10.59,34.22,32.16,36.17,23.12,2.1,46.53.68,69.78,1.67,30.19,1.3,55.45,10.61,69,41.24,17.59,39.76-1.91,86.36-45.2,91.91-41.82,5.36-84.87,1.16-126.92,1.16,10.1-41,34.09-65.84,81.71-63.35,17,.89,31.68-8.74,30.65-28.49-1-19.28-15.52-25.86-33-26.67-30.68-1.4-62,.61-91.91-4.86-37.45-6.86-50.6-52.82-24.23-78.91,8.63-8.54,21.36-12.93,32.21-19.22Z" transform="translate(0 -5.96)"/><path d="M200.89,6.19c10.84,14.52,25.53,27.58,31.76,43.87,15.49,40.53,26.67,82.7,40.48,123.91,8.8,26.22,19.28,33.36,47.6,32.76-6.45,8-10.14,15.32-16.09,19.38-31.25,21.34-91.71,2.61-104-33.16-14.83-43.22-27.44-87.21-41-130.88-5.54-17.88-13.4-33.56-39.89-36.31L142.26,6.19Z" transform="translate(0 -5.96)"/><path class="cls-1" d="M79.11,6.19c11,15.28,25.67,29.14,32.19,46.14,15.24,39.77,26.4,81.1,39.55,121.69,5.29,16.34,13.35,29.33,34.07,21,9.93,23.66,3,35-22.34,36.15-9,.41-18,.09-27,.07-32.28-.07-46.7-9.11-57-39.88C65.05,150.92,53.13,109.93,40.7,69.12,34.49,48.72,27.59,29.07,0,24.35L20.48,6.19Z" transform="translate(0 -5.96)"/><path class="cls-1" d="M247.29,38.66c3.65,5,6.64,11.63,9.22,19.21a0,0,0,0,0,0,0c.52-1.39,14.29-38.08,32.88-51.88,0,0,0,0,0,0-2.2.84-33.74,13.1-42.22,31.82Z" transform="translate(0 -5.96)"/></svg>